<svg width="161" height="30" viewBox="0 0 161 30" fill="none" xmlns="http://www.w3.org/2000/svg">
<path d="M148.163 22L148.136 2.803H150.701V22H148.163ZM157.505 22V15.088L160.043 14.278V22H157.505ZM157.505 15.088C157.505 13.864 157.361 12.937 157.073 12.307C156.785 11.659 156.389 11.209 155.885 10.957C155.399 10.705 154.841 10.57 154.211 10.552C153.095 10.552 152.231 10.939 151.619 11.713C151.007 12.487 150.701 13.576 150.701 14.98H149.621C149.621 13.558 149.828 12.343 150.242 11.335C150.656 10.309 151.25 9.526 152.024 8.986C152.816 8.446 153.752 8.176 154.832 8.176C156.47 8.176 157.748 8.68 158.666 9.688C159.602 10.678 160.061 12.208 160.043 14.278L157.505 15.088Z" fill="#020109"/>
<path d="M142.985 22.324C141.635 22.324 140.591 21.982 139.853 21.298C139.115 20.596 138.746 19.597 138.746 18.301V4.288H141.311V17.923C141.311 18.589 141.473 19.102 141.797 19.462C142.139 19.804 142.625 19.975 143.255 19.975C143.435 19.975 143.633 19.939 143.849 19.867C144.065 19.795 144.326 19.651 144.632 19.435L145.604 21.433C145.136 21.739 144.686 21.964 144.254 22.108C143.84 22.252 143.417 22.324 142.985 22.324ZM136.451 10.714V8.5H145.145V10.714H136.451Z" fill="#020109"/>
<path d="M129.927 14.737C129.927 13.279 130.206 12.091 130.764 11.173C131.322 10.255 132.042 9.571 132.924 9.121C133.806 8.671 134.733 8.446 135.705 8.446V10.876C134.895 10.876 134.121 11.002 133.383 11.254C132.663 11.488 132.069 11.884 131.601 12.442C131.151 12.982 130.926 13.72 130.926 14.656L129.927 14.737ZM128.361 22V8.5H130.926V22H128.361Z" fill="#020109"/>
<path d="M122.701 22L122.566 19.651V14.953C122.566 13.963 122.449 13.144 122.215 12.496C121.999 11.83 121.657 11.326 121.189 10.984C120.739 10.642 120.136 10.471 119.38 10.471C118.678 10.471 118.057 10.615 117.517 10.903C116.995 11.191 116.563 11.641 116.221 12.253L113.899 11.389C114.223 10.777 114.637 10.228 115.141 9.742C115.645 9.256 116.248 8.878 116.95 8.608C117.67 8.32 118.498 8.176 119.434 8.176C120.694 8.176 121.747 8.419 122.593 8.905C123.457 9.391 124.096 10.12 124.51 11.092C124.942 12.046 125.149 13.234 125.131 14.656L125.104 22H122.701ZM118.759 22.324C117.157 22.324 115.906 21.964 115.006 21.244C114.124 20.506 113.683 19.489 113.683 18.193C113.683 16.807 114.142 15.754 115.06 15.034C115.996 14.296 117.292 13.927 118.948 13.927H122.701V15.952H119.65C118.408 15.952 117.535 16.15 117.031 16.546C116.527 16.924 116.275 17.455 116.275 18.139C116.275 18.769 116.509 19.264 116.977 19.624C117.463 19.966 118.129 20.137 118.975 20.137C119.713 20.137 120.343 19.966 120.865 19.624C121.405 19.282 121.819 18.832 122.107 18.274C122.413 17.698 122.566 17.059 122.566 16.357H123.781C123.781 18.193 123.358 19.651 122.512 20.731C121.666 21.793 120.415 22.324 118.759 22.324Z" fill="#020109"/>
<path d="M105.614 22.324C104.3 22.324 103.139 22.027 102.131 21.433C101.123 20.821 100.331 19.984 99.7552 18.922C99.1792 17.86 98.8912 16.636 98.8912 15.25C98.8912 13.864 99.1792 12.64 99.7552 11.578C100.331 10.516 101.123 9.688 102.131 9.094C103.157 8.482 104.327 8.176 105.641 8.176C106.865 8.176 107.945 8.491 108.881 9.121C109.835 9.733 110.573 10.615 111.095 11.767C111.635 12.901 111.905 14.242 111.905 15.79H109.34C109.358 14.638 109.214 13.666 108.908 12.874C108.62 12.082 108.188 11.488 107.612 11.092C107.054 10.678 106.379 10.471 105.587 10.471C104.741 10.471 104.012 10.669 103.4 11.065C102.788 11.443 102.311 11.992 101.969 12.712C101.645 13.414 101.483 14.278 101.483 15.304C101.483 16.258 101.672 17.086 102.05 17.788C102.428 18.472 102.941 19.012 103.589 19.408C104.237 19.786 104.975 19.975 105.803 19.975C106.685 19.975 107.414 19.768 107.99 19.354C108.584 18.94 109.052 18.409 109.394 17.761L111.689 18.814C111.329 19.516 110.861 20.137 110.285 20.677C109.709 21.199 109.025 21.604 108.233 21.892C107.459 22.18 106.586 22.324 105.614 22.324ZM100.565 15.79L100.592 13.684H110.474V15.79H100.565Z" fill="#020109"/>
<path d="M91.8001 14.737C91.8001 13.279 92.0791 12.091 92.6371 11.173C93.1951 10.255 93.9151 9.571 94.7971 9.121C95.6791 8.671 96.6061 8.446 97.5781 8.446V10.876C96.7681 10.876 95.9941 11.002 95.2561 11.254C94.5361 11.488 93.9421 11.884 93.4741 12.442C93.0241 12.982 92.7991 13.72 92.7991 14.656L91.8001 14.737ZM90.2341 22V8.5H92.7991V22H90.2341Z" fill="#020109"/>
<path d="M81.4092 22.324C80.0952 22.324 78.9342 22.027 77.9262 21.433C76.9182 20.821 76.1262 19.984 75.5502 18.922C74.9742 17.86 74.6862 16.636 74.6862 15.25C74.6862 13.864 74.9742 12.64 75.5502 11.578C76.1262 10.516 76.9182 9.688 77.9262 9.094C78.9522 8.482 80.1222 8.176 81.4362 8.176C82.6602 8.176 83.7402 8.491 84.6762 9.121C85.6302 9.733 86.3682 10.615 86.8902 11.767C87.4302 12.901 87.7002 14.242 87.7002 15.79H85.1352C85.1532 14.638 85.0092 13.666 84.7032 12.874C84.4152 12.082 83.9832 11.488 83.4072 11.092C82.8492 10.678 82.1742 10.471 81.3822 10.471C80.5362 10.471 79.8072 10.669 79.1952 11.065C78.5832 11.443 78.1062 11.992 77.7642 12.712C77.4402 13.414 77.2782 14.278 77.2782 15.304C77.2782 16.258 77.4672 17.086 77.8452 17.788C78.2232 18.472 78.7362 19.012 79.3842 19.408C80.0322 19.786 80.7702 19.975 81.5982 19.975C82.4802 19.975 83.2092 19.768 83.7852 19.354C84.3792 18.94 84.8472 18.409 85.1892 17.761L87.4842 18.814C87.1242 19.516 86.6562 20.137 86.0802 20.677C85.5042 21.199 84.8202 21.604 84.0282 21.892C83.2542 22.18 82.3812 22.324 81.4092 22.324ZM76.3602 15.79L76.3872 13.684H86.2692V15.79H76.3602Z" fill="#020109"/>
<path d="M64.8216 17.923L63.2286 16.168L70.3296 8.5H73.4616L64.8216 17.923ZM62.3376 22V3.1H64.9026V22H62.3376ZM70.8966 22L65.9286 14.602L67.6026 12.82L73.9746 22H70.8966Z" fill="#020109"/>
<path d="M53.8599 22.324C52.5099 22.324 51.3129 22.027 50.2689 21.433C49.2249 20.821 48.4059 19.984 47.8119 18.922C47.2359 17.86 46.9479 16.636 46.9479 15.25C46.9479 13.864 47.2359 12.64 47.8119 11.578C48.4059 10.516 49.2159 9.688 50.2419 9.094C51.2859 8.482 52.4739 8.176 53.8059 8.176C55.1199 8.176 56.2989 8.482 57.3429 9.094C58.4049 9.706 59.1969 10.579 59.7189 11.713L57.3969 12.685C57.0549 12.019 56.5599 11.497 55.9119 11.119C55.2819 10.741 54.5529 10.552 53.7249 10.552C52.9149 10.552 52.1949 10.75 51.5649 11.146C50.9349 11.542 50.4399 12.1 50.0799 12.82C49.7199 13.522 49.5399 14.332 49.5399 15.25C49.5399 16.168 49.7199 16.978 50.0799 17.68C50.4399 18.382 50.9439 18.94 51.5919 19.354C52.2399 19.75 52.9689 19.948 53.7789 19.948C54.6069 19.948 55.3449 19.741 55.9929 19.327C56.6409 18.895 57.1269 18.319 57.4509 17.599L59.7999 18.544C59.2779 19.732 58.4859 20.659 57.4239 21.325C56.3799 21.991 55.1919 22.324 53.8599 22.324Z" fill="#020109"/>
<path d="M42.044 22L41.909 19.651V14.953C41.909 13.963 41.792 13.144 41.558 12.496C41.342 11.83 41 11.326 40.532 10.984C40.082 10.642 39.479 10.471 38.723 10.471C38.021 10.471 37.4 10.615 36.86 10.903C36.338 11.191 35.906 11.641 35.564 12.253L33.242 11.389C33.566 10.777 33.98 10.228 34.484 9.742C34.988 9.256 35.591 8.878 36.293 8.608C37.013 8.32 37.841 8.176 38.777 8.176C40.037 8.176 41.09 8.419 41.936 8.905C42.8 9.391 43.439 10.12 43.853 11.092C44.285 12.046 44.492 13.234 44.474 14.656L44.447 22H42.044ZM38.102 22.324C36.5 22.324 35.249 21.964 34.349 21.244C33.467 20.506 33.026 19.489 33.026 18.193C33.026 16.807 33.485 15.754 34.403 15.034C35.339 14.296 36.635 13.927 38.291 13.927H42.044V15.952H38.993C37.751 15.952 36.878 16.15 36.374 16.546C35.87 16.924 35.618 17.455 35.618 18.139C35.618 18.769 35.852 19.264 36.32 19.624C36.806 19.966 37.472 20.137 38.318 20.137C39.056 20.137 39.686 19.966 40.208 19.624C40.748 19.282 41.162 18.832 41.45 18.274C41.756 17.698 41.909 17.059 41.909 16.357H43.124C43.124 18.193 42.701 19.651 41.855 20.731C41.009 21.793 39.758 22.324 38.102 22.324Z" fill="#020109"/>
<g clip-path="url(#clip0_233_4826)">
<path fill-rule="evenodd" clip-rule="evenodd" d="M0.544967 2.73005C0 3.79961 0 5.19974 0 8V22C0 24.8003 0 26.2004 0.544967 27.27C1.02433 28.2108 1.78924 28.9757 2.73005 29.455C3.79961 30 5.19974 30 8 30H22C24.8003 30 26.2004 30 27.27 29.455C28.2108 28.9757 28.9757 28.2108 29.455 27.27C30 26.2004 30 24.8003 30 22V8C30 5.19974 30 3.79961 29.455 2.73005C28.9757 1.78924 28.2108 1.02433 27.27 0.544967C26.2004 0 24.8003 0 22 0H12.15L12.15 9.35354C12.517 8.79804 12.9556 8.34819 13.466 8.004C14.2687 7.444 15.2207 7.164 16.322 7.164C18.002 7.164 19.3087 7.68666 20.242 8.732C21.1753 9.75866 21.642 11.3453 21.642 13.492V21.5H18.506V14.332C18.506 13.212 18.3753 12.3533 18.114 11.756C17.8527 11.14 17.4887 10.7107 17.022 10.468C16.574 10.2253 16.0513 10.104 15.454 10.104C14.39 10.0853 13.5687 10.4307 12.99 11.14C12.43 11.8493 12.15 12.8667 12.15 14.192V21.5H9.01399V0H8C5.19974 0 3.79961 0 2.73005 0.544967C1.78924 1.02433 1.02433 1.78924 0.544967 2.73005ZM8.89999 24H21.7V26.25H8.89999V24Z" fill="#020109"/>
</g>
<defs>
<clipPath id="clip0_233_4826">
<rect width="30" height="30" fill="white"/>
</clipPath>
</defs>
</svg>
